<svg width="41" height="29" fill="none" xmlns="http://www.w3.org/2000/svg"><path fill-rule="evenodd" clip-rule="evenodd" d="M2.278 0C1.02 0 0 .927 0 2.071c0 1.144 1.02 2.072 2.278 2.072h36.444C39.98 4.143 41 3.215 41 2.07 41 .927 39.98 0 38.722 0H2.278zM9.11 14.5c0-1.144 1.02-2.071 2.278-2.071h27.333c1.258 0 2.278.927 2.278 2.071 0 1.144-1.02 2.071-2.278 2.071H11.39c-1.258 0-2.278-.927-2.278-2.071zm13.667 12.429c0-1.144 1.02-2.072 2.278-2.072h13.666c1.258 0 2.278.928 2.278 2.072C41 28.073 39.98 29 38.722 29H25.056c-1.259 0-2.278-.927-2.278-2.071z" fill="#fff"/></svg>