<svg width="32" height="33" fill="none" xmlns="http://www.w3.org/2000/svg"><mask id="mask0_1363_57" style="mask-type:luminance" maskUnits="userSpaceOnUse" x="0" y="0" width="32" height="33"><path d="M32 0H0v33h32V0z" fill="#fff"/></mask><g mask="url(#mask0_1363_57)"><path d="M28.577 3.785c-1.571-1.787-3.65-2.763-5.87-2.763s-4.306.984-5.877 2.77l-.82.934-.834-.948C13.606 1.99 11.513 1 9.293 1 7.08 1 4.994 1.984 3.43 3.763 1.859 5.55.994 7.923 1 10.448c0 2.525.871 4.89 2.442 6.677L15.386 30.71a.817.817 0 00.605.289.807.807 0 00.604-.282l11.97-13.564C30.134 15.367 31 12.994 31 10.47c.006-2.525-.852-4.898-2.423-6.685zm-1.221 11.987L15.99 28.65 4.65 15.75c-1.246-1.418-1.933-3.298-1.933-5.302 0-2.004.68-3.885 1.927-5.296 1.24-1.41 2.894-2.192 4.65-2.192 1.761 0 3.421.782 4.668 2.2l1.437 1.635a.785.785 0 001.215 0l1.424-1.62c1.247-1.419 2.907-2.2 4.662-2.2 1.756 0 3.41.781 4.656 2.192 1.246 1.418 1.927 3.299 1.927 5.303.006 2.003-.68 3.884-1.927 5.302z" fill="red" stroke="red" stroke-width="1.696"/></g></svg>