<svg xmlns="http://www.w3.org/2000/svg" viewBox="0 0 256 256" width="32" height="32"><path d="M184.547 40.047c-1.424 0-11.54 1.995-94.485 17.531-.648 0-3.749.81-5.453 2.235-1.672 1.344-2.562 3.138-2.89 5.25-1.384 5.528 3.026 105.187-1.078 109.859-1.792 1.992-4.951 2.568-7.391 3.016-14.592 2.56-24.307 3.9-31.219 10.484-11.912 11.624-5.74 31.907 11.828 35.203 6.584 1.216 18.95-.435 25.782-4.219 6.016-3.096 10.577-8.662 12.28-16.062 1.465-6.344 1.017-1.959 1.017-97.39 0-4.68 1.309-5.902 5.453-6.798 0 0 72.164-13.494 75.5-14.062 4.672-.816 6.906.448 6.906 5 0 64.696.819 63.431-1.781 66.36-1.792 1.991-3.92 2.551-6.36 3-14.6 2.56-23.416 3.009-30.328 9.593-8.744 8.536-8.626 22.074 1.094 30.25 7.24 5.52 15.368 6.879 25.328 5.047 11.344-2.12 19.806-8.387 22.406-19.531 1.176-5.08.798 2.438.75-137.61 0-4.72-2.687-7.484-7.36-7.156z" fill="#3d3d3d" font-family="none" font-weight="none" font-size="none" text-anchor="none"/></svg>