<svg width="22" height="22" fill="none" xmlns="http://www.w3.org/2000/svg"><path fill-rule="evenodd" clip-rule="evenodd" d="M11 0a.917.917 0 00-.917.917V7.68a.458.458 0 01-.782.324L4.518 3.222a.917.917 0 10-1.296 1.296l4.782 4.783a.458.458 0 01-.324.782H.917a.917.917 0 100 1.834H7.68c.409 0 .613.493.325.782l-4.783 4.783a.917.917 0 001.296 1.296l4.783-4.783a.457.457 0 01.782.325v6.763a.916.916 0 101.834 0V14.32c0-.409.493-.613.782-.325l4.783 4.783a.917.917 0 001.296-1.296l-4.783-4.783a.457.457 0 01.325-.782h6.763a.916.916 0 100-1.834H14.32a.457.457 0 01-.325-.782l4.783-4.783a.917.917 0 00-1.296-1.296l-4.783 4.783a.458.458 0 01-.782-.325V.917A.917.917 0 0011 0z" fill="#fff"/></svg>