<svg width="120" height="66" fill="none" xmlns="http://www.w3.org/2000/svg"><path fill="#3D3D3D" d="M0 0h120v36H0z"/><path d="M15.969 19.172h-5.844l-.031-3.406h4.828c.854 0 1.547-.104 2.078-.313.542-.208.938-.51 1.188-.906.25-.406.375-.906.375-1.5 0-.677-.125-1.224-.375-1.64-.25-.417-.646-.72-1.188-.907-.531-.198-1.219-.297-2.063-.297H11.97V29H6.875V6.25h8.063c1.364 0 2.583.125 3.656.375s1.984.635 2.734 1.156a5.187 5.187 0 011.735 1.953c.395.782.593 1.704.593 2.766a5.54 5.54 0 01-.625 2.594c-.406.802-1.062 1.453-1.968 1.953-.907.5-2.12.77-3.641.812l-1.453 1.313zM15.766 29H8.828l1.844-3.938h5.094c.78 0 1.416-.125 1.906-.375s.849-.588 1.078-1.015c.23-.427.344-.906.344-1.438 0-.625-.11-1.166-.328-1.625a2.245 2.245 0 00-1-1.062c-.448-.25-1.047-.375-1.797-.375h-4.563l.031-3.406h5.579l1.187 1.343c1.448-.03 2.604.203 3.469.703.875.49 1.505 1.136 1.89 1.938a5.8 5.8 0 01.579 2.547c0 1.479-.318 2.719-.953 3.719-.636.99-1.579 1.734-2.829 2.234-1.24.5-2.77.75-4.593.75zm38.02-3.938V29h-12.11v-3.938h12.11zM43.411 6.25V29h-5.093V6.25h5.093zm8.813 9.156v3.813H41.677v-3.813h10.547zm1.578-9.156v3.953H41.677V6.25h12.125zm22.817 4.328L70.744 29h-5.437l8.422-22.75h3.437l-.547 4.328zM81.494 29l-5.89-18.422-.61-4.328h3.485L86.932 29h-5.438zm-.25-8.469v3.938H69.385V20.53h11.86zM108.39 6.25V29h-5.078V6.25h5.078zm6.922 0v3.953H96.531V6.25h18.781z" fill="#fff"/><path fill="#fff" stroke="#3D3D3D" d="M.5 36.5h119v29H.5z"/><path d="M19.672 56c0-.385-.057-.73-.172-1.031-.115-.313-.323-.6-.625-.86s-.73-.52-1.281-.78c-.552-.272-1.276-.548-2.172-.829a29.313 29.313 0 01-2.922-1.125 12.583 12.583 0 01-2.453-1.484 6.497 6.497 0 01-1.703-1.97c-.406-.75-.61-1.624-.61-2.624 0-.969.214-1.844.641-2.625a5.968 5.968 0 011.797-2c.77-.563 1.677-.99 2.719-1.281 1.041-.302 2.187-.453 3.437-.453 1.667 0 3.13.296 4.39.89 1.272.583 2.261 1.406 2.97 2.469.708 1.052 1.062 2.276 1.062 3.672h-5.063c0-.615-.13-1.157-.39-1.625-.25-.48-.636-.854-1.156-1.125-.51-.271-1.151-.407-1.922-.407-.75 0-1.38.115-1.89.344-.5.219-.881.521-1.142.907a2.28 2.28 0 00-.374 1.265c0 .365.093.698.28 1 .199.292.48.568.845.828.374.25.833.49 1.374.719.542.23 1.162.448 1.86.656 1.219.386 2.297.813 3.234 1.282.948.468 1.745 1 2.39 1.593a5.89 5.89 0 011.454 2.016c.333.75.5 1.599.5 2.547 0 1.01-.198 1.906-.594 2.687a5.531 5.531 0 01-1.687 2c-.73.542-1.604.953-2.625 1.235-1.021.28-2.162.422-3.422.422-1.146 0-2.276-.146-3.39-.438A10.031 10.031 0 0110 60.5a7.043 7.043 0 01-2.156-2.344c-.532-.958-.797-2.093-.797-3.406h5.094c0 .688.099 1.27.296 1.75.198.469.48.849.844 1.14.375.292.828.5 1.36.626a7.792 7.792 0 001.78.187c.761 0 1.376-.104 1.845-.312.479-.22.833-.516 1.062-.891a2.35 2.35 0 00.344-1.25zm34.427 2.063V62h-12.11v-3.938H54.1zM43.724 39.25V62H38.63V39.25h5.094zm8.812 9.156v3.813H41.99v-3.813h10.547zm1.578-9.156v3.953H41.99V39.25h12.125zm28.209 18.813V62H70.838v-3.938h11.485zm-9.75-18.813V62h-5.094V39.25h5.094zm37.973 18.813V62H99.062v-3.938h11.484zm-9.75-18.813V62h-5.094V39.25h5.094z" fill="#3D3D3D"/></svg>