<svg width="50" height="50" fill="none" xmlns="http://www.w3.org/2000/svg"><g clip-path="url(#clip0_1363_39)"><path d="M5.025 43.335l2.877-32.426A1.233 1.233 0 019.144 9.78h6.065C15.22 4.388 19.608 0 25 0s9.78 4.388 9.79 9.78h6.066c.642 0 1.18.487 1.242 1.129l2.877 32.426v.114c0 3.612-3.322 6.551-7.4 6.551h-25.15c-4.078 0-7.4-2.94-7.4-6.551v-.114zM25 2.484c-4.026 0-7.297 3.27-7.307 7.297h14.614c-.01-4.027-3.28-7.297-7.307-7.297zM12.425 47.506h25.15c2.691 0 4.885-1.79 4.916-4.016l-2.774-31.226h-4.926v4.358c0 .683-.559 1.242-1.242 1.242a1.246 1.246 0 01-1.242-1.242v-4.357H17.693v4.357c0 .683-.559 1.242-1.242 1.242a1.246 1.246 0 01-1.242-1.242v-4.357h-4.926L7.509 43.5c.03 2.215 2.225 4.006 4.916 4.006z" fill="#000" stroke="#000" stroke-width="1.656"/></g><defs><clipPath id="clip0_1363_39"><path fill="#fff" transform="matrix(-1 0 0 1 50 0)" d="M0 0h50v50H0z"/></clipPath></defs></svg>